G04 #@! TF.FileFunction,Copper,L2,Bot,Signal*
%FSLAX46Y46*%
G04 Gerber Fmt 4.6, Leading zero omitted, Abs format (unit mm)*
G04 Created by KiCad (PCBNEW 4.0.7) date Tuesday, February 20, 2018 'PMt' 03:02:02 PM*
%MOMM*%
%LPD*%
G01*
G04 APERTURE LIST*
%ADD10C,0.100000*%
%ADD11R,1.600000X1.600000*%
%ADD12O,1.600000X1.600000*%
%ADD13C,1.600000*%
%ADD14R,1.700000X1.700000*%
%ADD15O,1.700000X1.700000*%
%ADD16R,3.500000X3.500000*%
%ADD17C,2.340000*%
%ADD18C,1.500000*%
%ADD19R,1.800000X1.800000*%
%ADD20C,1.800000*%
%ADD21C,0.250000*%
G04 APERTURE END LIST*
D10*
D11*
X97790000Y-85090000D03*
D12*
X105410000Y-118110000D03*
X97790000Y-87630000D03*
X105410000Y-115570000D03*
X97790000Y-90170000D03*
X105410000Y-113030000D03*
X97790000Y-92710000D03*
X105410000Y-110490000D03*
X97790000Y-95250000D03*
X105410000Y-107950000D03*
X97790000Y-97790000D03*
X105410000Y-105410000D03*
X97790000Y-100330000D03*
X105410000Y-102870000D03*
X97790000Y-102870000D03*
X105410000Y-100330000D03*
X97790000Y-105410000D03*
X105410000Y-97790000D03*
X97790000Y-107950000D03*
X105410000Y-95250000D03*
X97790000Y-110490000D03*
X105410000Y-92710000D03*
X97790000Y-113030000D03*
X105410000Y-90170000D03*
X97790000Y-115570000D03*
X105410000Y-87630000D03*
X97790000Y-118110000D03*
X105410000Y-85090000D03*
D13*
X86360000Y-97790000D03*
X86360000Y-102790000D03*
X86360000Y-110490000D03*
X86360000Y-105490000D03*
D14*
X114300000Y-87630000D03*
D15*
X116840000Y-87630000D03*
D14*
X114300000Y-85090000D03*
D15*
X116840000Y-85090000D03*
D14*
X114300000Y-82550000D03*
D15*
X116840000Y-82550000D03*
D16*
X102870000Y-80010000D03*
X102870000Y-74010000D03*
X98170000Y-77010000D03*
D14*
X125730000Y-118110000D03*
D15*
X123190000Y-118110000D03*
X125730000Y-115570000D03*
X123190000Y-115570000D03*
X125730000Y-113030000D03*
X123190000Y-113030000D03*
X125730000Y-110490000D03*
X123190000Y-110490000D03*
X125730000Y-107950000D03*
X123190000Y-107950000D03*
X125730000Y-105410000D03*
X123190000Y-105410000D03*
X125730000Y-102870000D03*
X123190000Y-102870000D03*
X125730000Y-100330000D03*
X123190000Y-100330000D03*
D14*
X114300000Y-80010000D03*
D15*
X116840000Y-80010000D03*
D14*
X97790000Y-124460000D03*
D15*
X100330000Y-124460000D03*
X102870000Y-124460000D03*
X105410000Y-124460000D03*
X107950000Y-124460000D03*
X110490000Y-124460000D03*
D17*
X123190000Y-86280000D03*
X125690000Y-83780000D03*
X123190000Y-81280000D03*
D11*
X118110000Y-118110000D03*
D12*
X110490000Y-100330000D03*
X118110000Y-115570000D03*
X110490000Y-102870000D03*
X118110000Y-113030000D03*
X110490000Y-105410000D03*
X118110000Y-110490000D03*
X110490000Y-107950000D03*
X118110000Y-107950000D03*
X110490000Y-110490000D03*
X118110000Y-105410000D03*
X110490000Y-113030000D03*
X118110000Y-102870000D03*
X110490000Y-115570000D03*
X118110000Y-100330000D03*
X110490000Y-118110000D03*
D14*
X110490000Y-93980000D03*
D15*
X113030000Y-93980000D03*
X115570000Y-93980000D03*
X118110000Y-93980000D03*
X120650000Y-93980000D03*
X123190000Y-93980000D03*
X125730000Y-93980000D03*
D18*
X92710000Y-105410000D03*
X92710000Y-100530000D03*
D14*
X92710000Y-111760000D03*
D15*
X92710000Y-114300000D03*
X92710000Y-116840000D03*
X92710000Y-119380000D03*
X92710000Y-121920000D03*
X92710000Y-124460000D03*
D14*
X91440000Y-93980000D03*
D15*
X88900000Y-93980000D03*
X86360000Y-93980000D03*
D19*
X92710000Y-72390000D03*
D20*
X92710000Y-74930000D03*
D14*
X114300000Y-74930000D03*
D15*
X116840000Y-74930000D03*
D13*
X93980000Y-78740000D03*
D12*
X91440000Y-78740000D03*
D11*
X87630000Y-82550000D03*
D13*
X85630000Y-82550000D03*
X91440000Y-82550000D03*
D12*
X93980000Y-82550000D03*
D21*
X95105300Y-83530600D02*
X96664700Y-85090000D01*
X95105300Y-82550000D02*
X95105300Y-83530600D01*
X97790000Y-85090000D02*
X96664700Y-85090000D01*
X93980000Y-82550000D02*
X95105300Y-82550000D01*
X110490000Y-113030000D02*
X105410000Y-113030000D01*
X95394700Y-93980000D02*
X96664700Y-92710000D01*
X91440000Y-93980000D02*
X95394700Y-93980000D01*
X97790000Y-92710000D02*
X96664700Y-92710000D01*
X106535300Y-110208700D02*
X106535300Y-110490000D01*
X109919400Y-106824600D02*
X106535300Y-110208700D01*
X110712600Y-106824600D02*
X109919400Y-106824600D01*
X116934700Y-100602500D02*
X110712600Y-106824600D01*
X116934700Y-96330600D02*
X116934700Y-100602500D01*
X118110000Y-95155300D02*
X116934700Y-96330600D01*
X118110000Y-93980000D02*
X118110000Y-95155300D01*
X105410000Y-110490000D02*
X106535300Y-110490000D01*
X109075300Y-105410000D02*
X106535300Y-107950000D01*
X110490000Y-105410000D02*
X109075300Y-105410000D01*
X105410000Y-107950000D02*
X106535300Y-107950000D01*
X110771400Y-104284700D02*
X110490000Y-104284700D01*
X111615300Y-103440800D02*
X110771400Y-104284700D01*
X111615300Y-100024400D02*
X111615300Y-103440800D01*
X116840000Y-94799700D02*
X111615300Y-100024400D01*
X116840000Y-93585600D02*
X116840000Y-94799700D01*
X117621000Y-92804600D02*
X116840000Y-93585600D01*
X118612800Y-92804600D02*
X117621000Y-92804600D01*
X119474700Y-93666500D02*
X118612800Y-92804600D01*
X119474700Y-93980000D02*
X119474700Y-93666500D01*
X120650000Y-93980000D02*
X119474700Y-93980000D01*
X110490000Y-105410000D02*
X110490000Y-104284700D01*
X87630000Y-82550000D02*
X91440000Y-82550000D01*
X87630000Y-91534700D02*
X86360000Y-92804700D01*
X87630000Y-82550000D02*
X87630000Y-91534700D01*
X105410000Y-105410000D02*
X104284700Y-105410000D01*
X120889400Y-116984700D02*
X122014700Y-118110000D01*
X112740600Y-116984700D02*
X120889400Y-116984700D01*
X111615300Y-118110000D02*
X112740600Y-116984700D01*
X110490000Y-118110000D02*
X111615300Y-118110000D01*
X123190000Y-118110000D02*
X122014700Y-118110000D01*
X110490000Y-118110000D02*
X109364700Y-118110000D01*
X125730000Y-100330000D02*
X125730000Y-99154700D01*
X102538700Y-107156000D02*
X102538700Y-111750200D01*
X104284700Y-105410000D02*
X102538700Y-107156000D01*
X109364700Y-117828700D02*
X109364700Y-118110000D01*
X105836000Y-114300000D02*
X109364700Y-117828700D01*
X105088500Y-114300000D02*
X105836000Y-114300000D01*
X102538700Y-111750200D02*
X105088500Y-114300000D01*
X92710000Y-111760000D02*
X93885300Y-111760000D01*
X97790000Y-124460000D02*
X97790000Y-123284700D01*
X96657300Y-111760000D02*
X93885300Y-111760000D01*
X96667100Y-111750200D02*
X96657300Y-111760000D01*
X102538700Y-111750200D02*
X96667100Y-111750200D01*
X96657300Y-122152000D02*
X97790000Y-123284700D01*
X96657300Y-111760000D02*
X96657300Y-122152000D01*
X101744700Y-100330000D02*
X104284700Y-102870000D01*
X97790000Y-100330000D02*
X101744700Y-100330000D01*
X105410000Y-102870000D02*
X104284700Y-102870000D01*
X110490000Y-102870000D02*
X105410000Y-102870000D01*
X112115700Y-92354300D02*
X110490000Y-93980000D01*
X121920000Y-92354300D02*
X112115700Y-92354300D01*
X121920000Y-87550000D02*
X121920000Y-92354300D01*
X123190000Y-86280000D02*
X121920000Y-87550000D01*
X121920000Y-95344700D02*
X125730000Y-99154700D01*
X121920000Y-92354300D02*
X121920000Y-95344700D01*
X86360000Y-93980000D02*
X86360000Y-93392300D01*
X86360000Y-93392300D02*
X86360000Y-92804700D01*
X95539400Y-99204700D02*
X96664700Y-100330000D01*
X92172400Y-99204700D02*
X95539400Y-99204700D01*
X86360000Y-93392300D02*
X92172400Y-99204700D01*
X97790000Y-100330000D02*
X96664700Y-100330000D01*
X119285300Y-81280000D02*
X118015300Y-80010000D01*
X123190000Y-81280000D02*
X119285300Y-81280000D01*
X116840000Y-80010000D02*
X118015300Y-80010000D01*
X96584700Y-102790000D02*
X96664700Y-102870000D01*
X86360000Y-102790000D02*
X96584700Y-102790000D01*
X97790000Y-102870000D02*
X96664700Y-102870000D01*
X118110000Y-100330000D02*
X118110000Y-100892600D01*
X121452100Y-100892600D02*
X122014700Y-100330000D01*
X118110000Y-100892600D02*
X121452100Y-100892600D01*
X123190000Y-100330000D02*
X122014700Y-100330000D01*
X125730000Y-113030000D02*
X124667300Y-113030000D01*
X125362600Y-116934700D02*
X125730000Y-116934700D01*
X124554700Y-116126800D02*
X125362600Y-116934700D01*
X124554700Y-113030000D02*
X124554700Y-116126800D01*
X124667300Y-113030000D02*
X124554700Y-113030000D01*
X125730000Y-118110000D02*
X125730000Y-116934700D01*
X95060600Y-125635300D02*
X93885300Y-124460000D01*
X108506700Y-125635300D02*
X95060600Y-125635300D01*
X109314700Y-124827300D02*
X108506700Y-125635300D01*
X109314700Y-124460000D02*
X109314700Y-124827300D01*
X110490000Y-124460000D02*
X109314700Y-124460000D01*
X92710000Y-124460000D02*
X93885300Y-124460000D01*
X111615300Y-107387300D02*
X118110000Y-100892600D01*
X111615300Y-108520800D02*
X111615300Y-107387300D01*
X110771400Y-109364700D02*
X111615300Y-108520800D01*
X110490000Y-109364700D02*
X110771400Y-109364700D01*
X110490000Y-110490000D02*
X110490000Y-109364700D01*
X97790000Y-105410000D02*
X97790000Y-104284700D01*
X89100000Y-100530000D02*
X86360000Y-97790000D01*
X92710000Y-100530000D02*
X89100000Y-100530000D01*
X98071400Y-104284700D02*
X97790000Y-104284700D01*
X98915300Y-103440800D02*
X98071400Y-104284700D01*
X98915300Y-102363600D02*
X98915300Y-103440800D01*
X98052800Y-101501100D02*
X98915300Y-102363600D01*
X93681100Y-101501100D02*
X98052800Y-101501100D01*
X92710000Y-100530000D02*
X93681100Y-101501100D01*
X94124700Y-105410000D02*
X96664700Y-107950000D01*
X92710000Y-105410000D02*
X94124700Y-105410000D01*
X97790000Y-107950000D02*
X96664700Y-107950000D01*
X91440000Y-105410000D02*
X92710000Y-105410000D01*
X86360000Y-110490000D02*
X91440000Y-105410000D01*
X111392700Y-95250000D02*
X105410000Y-95250000D01*
X111854700Y-94788000D02*
X111392700Y-95250000D01*
X111854700Y-93980000D02*
X111854700Y-94788000D01*
X113030000Y-93980000D02*
X111854700Y-93980000D01*
X108044700Y-92710000D02*
X105410000Y-92710000D01*
X113124700Y-87630000D02*
X108044700Y-92710000D01*
X114300000Y-87630000D02*
X113124700Y-87630000D01*
X108044700Y-90170000D02*
X105410000Y-90170000D01*
X113124700Y-85090000D02*
X108044700Y-90170000D01*
X114300000Y-85090000D02*
X113124700Y-85090000D01*
X108044700Y-87630000D02*
X105410000Y-87630000D01*
X113124700Y-82550000D02*
X108044700Y-87630000D01*
X114300000Y-82550000D02*
X113124700Y-82550000D01*
X101839400Y-123284700D02*
X97790000Y-119235300D01*
X102870000Y-123284700D02*
X101839400Y-123284700D01*
X97790000Y-118110000D02*
X97790000Y-119235300D01*
X102870000Y-124460000D02*
X102870000Y-123284700D01*
X108044700Y-85090000D02*
X105410000Y-85090000D01*
X113124700Y-80010000D02*
X108044700Y-85090000D01*
X114300000Y-80010000D02*
X113124700Y-80010000D01*
X126097400Y-114394700D02*
X125730000Y-114394700D01*
X126905300Y-113586800D02*
X126097400Y-114394700D01*
X126905300Y-84995300D02*
X126905300Y-113586800D01*
X125690000Y-83780000D02*
X126905300Y-84995300D01*
X125730000Y-115570000D02*
X125730000Y-114394700D01*
X118110000Y-113030000D02*
X123190000Y-113030000D01*
X124554700Y-105777400D02*
X124554700Y-105410000D01*
X123746800Y-106585300D02*
X124554700Y-105777400D01*
X122858700Y-106585300D02*
X123746800Y-106585300D01*
X119235300Y-110208700D02*
X122858700Y-106585300D01*
X119235300Y-110490000D02*
X119235300Y-110208700D01*
X118110000Y-110490000D02*
X119235300Y-110490000D01*
X125730000Y-105410000D02*
X124554700Y-105410000D01*
X121775300Y-105410000D02*
X123190000Y-105410000D01*
X119235300Y-107950000D02*
X121775300Y-105410000D01*
X118110000Y-107950000D02*
X119235300Y-107950000D01*
X124554700Y-103237400D02*
X124554700Y-102870000D01*
X123746800Y-104045300D02*
X124554700Y-103237400D01*
X120600000Y-104045300D02*
X123746800Y-104045300D01*
X119235300Y-105410000D02*
X120600000Y-104045300D01*
X118110000Y-105410000D02*
X119235300Y-105410000D01*
X125730000Y-102870000D02*
X124554700Y-102870000D01*
X118110000Y-102870000D02*
X123190000Y-102870000D01*
X110025300Y-74930000D02*
X114300000Y-74930000D01*
X104945300Y-80010000D02*
X110025300Y-74930000D01*
X102870000Y-80010000D02*
X104945300Y-80010000D01*
M02*
