M48
;DRILL file {KiCad 4.0.7} date Tuesday, February 20, 2018 'PMt' 03:06:21 PM
;FORMAT={2:4/ absolute / inch / suppress leading zeros}
FMAT,2
INCH,TZ
T1C0.031
T2C0.035
T3C0.039
T4C0.051
T5C0.126
%
G90
G05
M72
T1
X33713Y-32500
X34000Y-38500
X34000Y-40469
X34000Y-41531
X34000Y-43500
X34500Y-32500
X36000Y-31000
X36000Y-32500
X36500Y-39579
X36500Y-41500
X37000Y-31000
X37000Y-32500
X38500Y-33500
X38500Y-34500
X38500Y-35500
X38500Y-36500
X38500Y-37500
X38500Y-38500
X38500Y-39500
X38500Y-40500
X38500Y-41500
X38500Y-42500
X38500Y-43500
X38500Y-44500
X38500Y-45500
X38500Y-46500
X41500Y-33500
X41500Y-34500
X41500Y-35500
X41500Y-36500
X41500Y-37500
X41500Y-38500
X41500Y-39500
X41500Y-40500
X41500Y-41500
X41500Y-42500
X41500Y-43500
X41500Y-44500
X41500Y-45500
X41500Y-46500
X43500Y-39500
X43500Y-40500
X43500Y-41500
X43500Y-42500
X43500Y-43500
X43500Y-44500
X43500Y-45500
X43500Y-46500
X46500Y-39500
X46500Y-40500
X46500Y-41500
X46500Y-42500
X46500Y-43500
X46500Y-44500
X46500Y-45500
X46500Y-46500
T2
X36500Y-28500
X36500Y-29500
T3
X34000Y-37000
X35000Y-37000
X36000Y-37000
X36500Y-44000
X36500Y-45000
X36500Y-46000
X36500Y-47000
X36500Y-48000
X36500Y-49000
X38500Y-49000
X39500Y-49000
X40500Y-49000
X41500Y-49000
X42500Y-49000
X43500Y-37000
X43500Y-49000
X44500Y-37000
X45000Y-29500
X45000Y-31500
X45000Y-32500
X45000Y-33500
X45000Y-34500
X45500Y-37000
X46000Y-29500
X46000Y-31500
X46000Y-32500
X46000Y-33500
X46000Y-34500
X46500Y-37000
X47500Y-37000
X48500Y-37000
X48500Y-39500
X48500Y-40500
X48500Y-41500
X48500Y-42500
X48500Y-43500
X48500Y-44500
X48500Y-45500
X48500Y-46500
X49500Y-37000
X49500Y-39500
X49500Y-40500
X49500Y-41500
X49500Y-42500
X49500Y-43500
X49500Y-44500
X49500Y-45500
X49500Y-46500
T4
X48500Y-32000
X48500Y-33969
X49484Y-32984
T5
X34000Y-29500
X34000Y-49000
X49500Y-29500
X49500Y-49000
T3
X38650Y-29925G85X38650Y-30713
G05
X40894Y-29138G85X40106Y-29138
G05
X40894Y-31500G85X40106Y-31500
G05
T0
M30
