G04 #@! TF.FileFunction,Soldermask,Top*
%FSLAX46Y46*%
G04 Gerber Fmt 4.6, Leading zero omitted, Abs format (unit mm)*
G04 Created by KiCad (PCBNEW 4.0.7) date Tuesday, February 20, 2018 'PMt' 03:02:02 PM*
%MOMM*%
%LPD*%
G01*
G04 APERTURE LIST*
%ADD10C,0.100000*%
%ADD11R,1.600000X1.600000*%
%ADD12O,1.600000X1.600000*%
%ADD13C,1.600000*%
%ADD14R,1.700000X1.700000*%
%ADD15O,1.700000X1.700000*%
%ADD16R,3.500000X3.500000*%
%ADD17C,2.340000*%
%ADD18C,1.500000*%
%ADD19C,3.200000*%
%ADD20R,1.800000X1.800000*%
%ADD21C,1.800000*%
G04 APERTURE END LIST*
D10*
D11*
X97790000Y-85090000D03*
D12*
X105410000Y-118110000D03*
X97790000Y-87630000D03*
X105410000Y-115570000D03*
X97790000Y-90170000D03*
X105410000Y-113030000D03*
X97790000Y-92710000D03*
X105410000Y-110490000D03*
X97790000Y-95250000D03*
X105410000Y-107950000D03*
X97790000Y-97790000D03*
X105410000Y-105410000D03*
X97790000Y-100330000D03*
X105410000Y-102870000D03*
X97790000Y-102870000D03*
X105410000Y-100330000D03*
X97790000Y-105410000D03*
X105410000Y-97790000D03*
X97790000Y-107950000D03*
X105410000Y-95250000D03*
X97790000Y-110490000D03*
X105410000Y-92710000D03*
X97790000Y-113030000D03*
X105410000Y-90170000D03*
X97790000Y-115570000D03*
X105410000Y-87630000D03*
X97790000Y-118110000D03*
X105410000Y-85090000D03*
D13*
X86360000Y-97790000D03*
X86360000Y-102790000D03*
X86360000Y-110490000D03*
X86360000Y-105490000D03*
D14*
X114300000Y-87630000D03*
D15*
X116840000Y-87630000D03*
D14*
X114300000Y-85090000D03*
D15*
X116840000Y-85090000D03*
D14*
X114300000Y-82550000D03*
D15*
X116840000Y-82550000D03*
D16*
X102870000Y-80010000D03*
X102870000Y-74010000D03*
X98170000Y-77010000D03*
D14*
X125730000Y-118110000D03*
D15*
X123190000Y-118110000D03*
X125730000Y-115570000D03*
X123190000Y-115570000D03*
X125730000Y-113030000D03*
X123190000Y-113030000D03*
X125730000Y-110490000D03*
X123190000Y-110490000D03*
X125730000Y-107950000D03*
X123190000Y-107950000D03*
X125730000Y-105410000D03*
X123190000Y-105410000D03*
X125730000Y-102870000D03*
X123190000Y-102870000D03*
X125730000Y-100330000D03*
X123190000Y-100330000D03*
D14*
X114300000Y-80010000D03*
D15*
X116840000Y-80010000D03*
D14*
X97790000Y-124460000D03*
D15*
X100330000Y-124460000D03*
X102870000Y-124460000D03*
X105410000Y-124460000D03*
X107950000Y-124460000D03*
X110490000Y-124460000D03*
D17*
X123190000Y-86280000D03*
X125690000Y-83780000D03*
X123190000Y-81280000D03*
D11*
X118110000Y-118110000D03*
D12*
X110490000Y-100330000D03*
X118110000Y-115570000D03*
X110490000Y-102870000D03*
X118110000Y-113030000D03*
X110490000Y-105410000D03*
X118110000Y-110490000D03*
X110490000Y-107950000D03*
X118110000Y-107950000D03*
X110490000Y-110490000D03*
X118110000Y-105410000D03*
X110490000Y-113030000D03*
X118110000Y-102870000D03*
X110490000Y-115570000D03*
X118110000Y-100330000D03*
X110490000Y-118110000D03*
D14*
X110490000Y-93980000D03*
D15*
X113030000Y-93980000D03*
X115570000Y-93980000D03*
X118110000Y-93980000D03*
X120650000Y-93980000D03*
X123190000Y-93980000D03*
X125730000Y-93980000D03*
D18*
X92710000Y-105410000D03*
X92710000Y-100530000D03*
D14*
X92710000Y-111760000D03*
D15*
X92710000Y-114300000D03*
X92710000Y-116840000D03*
X92710000Y-119380000D03*
X92710000Y-121920000D03*
X92710000Y-124460000D03*
D14*
X91440000Y-93980000D03*
D15*
X88900000Y-93980000D03*
X86360000Y-93980000D03*
D19*
X86360000Y-74930000D03*
X86360000Y-124460000D03*
X125730000Y-124460000D03*
X125730000Y-74930000D03*
D20*
X92710000Y-72390000D03*
D21*
X92710000Y-74930000D03*
D14*
X114300000Y-74930000D03*
D15*
X116840000Y-74930000D03*
D13*
X93980000Y-78740000D03*
D12*
X91440000Y-78740000D03*
D11*
X87630000Y-82550000D03*
D13*
X85630000Y-82550000D03*
X91440000Y-82550000D03*
D12*
X93980000Y-82550000D03*
M02*
