G04 #@! TF.FileFunction,Copper,L1,Top,Signal*
%FSLAX46Y46*%
G04 Gerber Fmt 4.6, Leading zero omitted, Abs format (unit mm)*
G04 Created by KiCad (PCBNEW 4.0.7) date Tuesday, February 20, 2018 'PMt' 03:02:02 PM*
%MOMM*%
%LPD*%
G01*
G04 APERTURE LIST*
%ADD10C,0.100000*%
%ADD11R,1.600000X1.600000*%
%ADD12O,1.600000X1.600000*%
%ADD13C,1.600000*%
%ADD14R,1.700000X1.700000*%
%ADD15O,1.700000X1.700000*%
%ADD16R,3.500000X3.500000*%
%ADD17C,2.340000*%
%ADD18C,1.500000*%
%ADD19R,1.800000X1.800000*%
%ADD20C,1.800000*%
%ADD21C,0.250000*%
G04 APERTURE END LIST*
D10*
D11*
X97790000Y-85090000D03*
D12*
X105410000Y-118110000D03*
X97790000Y-87630000D03*
X105410000Y-115570000D03*
X97790000Y-90170000D03*
X105410000Y-113030000D03*
X97790000Y-92710000D03*
X105410000Y-110490000D03*
X97790000Y-95250000D03*
X105410000Y-107950000D03*
X97790000Y-97790000D03*
X105410000Y-105410000D03*
X97790000Y-100330000D03*
X105410000Y-102870000D03*
X97790000Y-102870000D03*
X105410000Y-100330000D03*
X97790000Y-105410000D03*
X105410000Y-97790000D03*
X97790000Y-107950000D03*
X105410000Y-95250000D03*
X97790000Y-110490000D03*
X105410000Y-92710000D03*
X97790000Y-113030000D03*
X105410000Y-90170000D03*
X97790000Y-115570000D03*
X105410000Y-87630000D03*
X97790000Y-118110000D03*
X105410000Y-85090000D03*
D13*
X86360000Y-97790000D03*
X86360000Y-102790000D03*
X86360000Y-110490000D03*
X86360000Y-105490000D03*
D14*
X114300000Y-87630000D03*
D15*
X116840000Y-87630000D03*
D14*
X114300000Y-85090000D03*
D15*
X116840000Y-85090000D03*
D14*
X114300000Y-82550000D03*
D15*
X116840000Y-82550000D03*
D16*
X102870000Y-80010000D03*
X102870000Y-74010000D03*
X98170000Y-77010000D03*
D14*
X125730000Y-118110000D03*
D15*
X123190000Y-118110000D03*
X125730000Y-115570000D03*
X123190000Y-115570000D03*
X125730000Y-113030000D03*
X123190000Y-113030000D03*
X125730000Y-110490000D03*
X123190000Y-110490000D03*
X125730000Y-107950000D03*
X123190000Y-107950000D03*
X125730000Y-105410000D03*
X123190000Y-105410000D03*
X125730000Y-102870000D03*
X123190000Y-102870000D03*
X125730000Y-100330000D03*
X123190000Y-100330000D03*
D14*
X114300000Y-80010000D03*
D15*
X116840000Y-80010000D03*
D14*
X97790000Y-124460000D03*
D15*
X100330000Y-124460000D03*
X102870000Y-124460000D03*
X105410000Y-124460000D03*
X107950000Y-124460000D03*
X110490000Y-124460000D03*
D17*
X123190000Y-86280000D03*
X125690000Y-83780000D03*
X123190000Y-81280000D03*
D11*
X118110000Y-118110000D03*
D12*
X110490000Y-100330000D03*
X118110000Y-115570000D03*
X110490000Y-102870000D03*
X118110000Y-113030000D03*
X110490000Y-105410000D03*
X118110000Y-110490000D03*
X110490000Y-107950000D03*
X118110000Y-107950000D03*
X110490000Y-110490000D03*
X118110000Y-105410000D03*
X110490000Y-113030000D03*
X118110000Y-102870000D03*
X110490000Y-115570000D03*
X118110000Y-100330000D03*
X110490000Y-118110000D03*
D14*
X110490000Y-93980000D03*
D15*
X113030000Y-93980000D03*
X115570000Y-93980000D03*
X118110000Y-93980000D03*
X120650000Y-93980000D03*
X123190000Y-93980000D03*
X125730000Y-93980000D03*
D18*
X92710000Y-105410000D03*
X92710000Y-100530000D03*
D14*
X92710000Y-111760000D03*
D15*
X92710000Y-114300000D03*
X92710000Y-116840000D03*
X92710000Y-119380000D03*
X92710000Y-121920000D03*
X92710000Y-124460000D03*
D14*
X91440000Y-93980000D03*
D15*
X88900000Y-93980000D03*
X86360000Y-93980000D03*
D19*
X92710000Y-72390000D03*
D20*
X92710000Y-74930000D03*
D14*
X114300000Y-74930000D03*
D15*
X116840000Y-74930000D03*
D13*
X93980000Y-78740000D03*
D12*
X91440000Y-78740000D03*
D11*
X87630000Y-82550000D03*
D13*
X85630000Y-82550000D03*
X91440000Y-82550000D03*
D12*
X93980000Y-82550000D03*
D21*
X105410000Y-124460000D02*
X105410000Y-118110000D01*
X105691300Y-116695300D02*
X105410000Y-116695300D01*
X107950000Y-118954000D02*
X105691300Y-116695300D01*
X107950000Y-124460000D02*
X107950000Y-118954000D01*
X105410000Y-115570000D02*
X105410000Y-116695300D01*
X110771300Y-111904700D02*
X110490000Y-111904700D01*
X115570000Y-107106000D02*
X110771300Y-111904700D01*
X115570000Y-93980000D02*
X115570000Y-107106000D01*
X110490000Y-113030000D02*
X110490000Y-111904700D01*
X97508700Y-96375300D02*
X97790000Y-96375300D01*
X93885300Y-99998700D02*
X97508700Y-96375300D01*
X93885300Y-112757500D02*
X93885300Y-99998700D01*
X93518100Y-113124700D02*
X93885300Y-112757500D01*
X92710000Y-113124700D02*
X93518100Y-113124700D01*
X92710000Y-114300000D02*
X92710000Y-113124700D01*
X97790000Y-95250000D02*
X97790000Y-96375300D01*
X92710000Y-116840000D02*
X92710000Y-115664700D01*
X97790000Y-97790000D02*
X97790000Y-98915300D01*
X97508700Y-98915300D02*
X97790000Y-98915300D01*
X95810400Y-100613600D02*
X97508700Y-98915300D01*
X95810400Y-112505300D02*
X95810400Y-100613600D01*
X93964000Y-114351700D02*
X95810400Y-112505300D01*
X93964000Y-114734000D02*
X93964000Y-114351700D01*
X93033300Y-115664700D02*
X93964000Y-114734000D01*
X92710000Y-115664700D02*
X93033300Y-115664700D01*
X93980000Y-80010000D02*
X93980000Y-78740000D01*
X91440000Y-82550000D02*
X93980000Y-80010000D01*
X110771400Y-101744700D02*
X110490000Y-101744700D01*
X111615300Y-100900800D02*
X110771400Y-101744700D01*
X111615300Y-96280600D02*
X111615300Y-100900800D01*
X110490000Y-95155300D02*
X111615300Y-96280600D01*
X110490000Y-93980000D02*
X110490000Y-95155300D01*
X110490000Y-102870000D02*
X110490000Y-101744700D01*
X118015300Y-77280600D02*
X116840000Y-76105300D01*
X118015300Y-81105300D02*
X118015300Y-77280600D01*
X123190000Y-86280000D02*
X118015300Y-81105300D01*
X116840000Y-74930000D02*
X116840000Y-76105300D01*
X105410000Y-102870000D02*
X105410000Y-105410000D01*
X88900000Y-100250000D02*
X86360000Y-102790000D01*
X88900000Y-93980000D02*
X88900000Y-100250000D01*
X116840000Y-80010000D02*
X116840000Y-82550000D01*
X116840000Y-82550000D02*
X116840000Y-85090000D01*
X116840000Y-85090000D02*
X116840000Y-87630000D01*
X86360000Y-105490000D02*
X86360000Y-102790000D01*
X110490000Y-110490000D02*
X109364700Y-110490000D01*
X101170000Y-76085300D02*
X102870000Y-76085300D01*
X100245300Y-77010000D02*
X101170000Y-76085300D01*
X98170000Y-77010000D02*
X100245300Y-77010000D01*
X102870000Y-74010000D02*
X102870000Y-76085300D01*
X100506900Y-101278400D02*
X105410000Y-101278400D01*
X98915300Y-102870000D02*
X100506900Y-101278400D01*
X105410000Y-100330000D02*
X105410000Y-101278400D01*
X105410000Y-101278400D02*
X105410000Y-101455300D01*
X97790000Y-102870000D02*
X98915300Y-102870000D01*
X118572000Y-87630000D02*
X116840000Y-87630000D01*
X124554700Y-93612700D02*
X118572000Y-87630000D01*
X124554700Y-93980000D02*
X124554700Y-93612700D01*
X125730000Y-93980000D02*
X124554700Y-93980000D01*
X88900000Y-93980000D02*
X88900000Y-92804700D01*
X109364700Y-122159400D02*
X110490000Y-123284700D01*
X109364700Y-110490000D02*
X109364700Y-122159400D01*
X110490000Y-124460000D02*
X110490000Y-123284700D01*
X107474700Y-108600000D02*
X109364700Y-110490000D01*
X107474700Y-103315400D02*
X107474700Y-108600000D01*
X105614600Y-101455300D02*
X107474700Y-103315400D01*
X105410000Y-101455300D02*
X105614600Y-101455300D01*
X85630000Y-89534700D02*
X85630000Y-82550000D01*
X88900000Y-92804700D02*
X85630000Y-89534700D01*
X92250500Y-73615300D02*
X92710000Y-73615300D01*
X85630000Y-80235800D02*
X92250500Y-73615300D01*
X85630000Y-82550000D02*
X85630000Y-80235800D01*
X92710000Y-72390000D02*
X92710000Y-72952800D01*
X92710000Y-72952800D02*
X92710000Y-73615300D01*
X96094700Y-76337500D02*
X96094700Y-77010000D01*
X92710000Y-72952800D02*
X96094700Y-76337500D01*
X98170000Y-77010000D02*
X96094700Y-77010000D01*
X124554700Y-97790000D02*
X124554700Y-93980000D01*
X123190000Y-99154700D02*
X124554700Y-97790000D01*
X123190000Y-100330000D02*
X123190000Y-99742300D01*
X123190000Y-99742300D02*
X123190000Y-99154700D01*
X125362600Y-111854700D02*
X125730000Y-111854700D01*
X124554700Y-111046800D02*
X125362600Y-111854700D01*
X124554700Y-101107000D02*
X124554700Y-111046800D01*
X123190000Y-99742300D02*
X124554700Y-101107000D01*
X125730000Y-113030000D02*
X125730000Y-111854700D01*
X105691300Y-98915300D02*
X105410000Y-98915300D01*
X108150100Y-101374100D02*
X105691300Y-98915300D01*
X108150100Y-104760600D02*
X108150100Y-101374100D01*
X110214200Y-106824700D02*
X108150100Y-104760600D01*
X110490000Y-106824700D02*
X110214200Y-106824700D01*
X110490000Y-107950000D02*
X110490000Y-106824700D01*
X105410000Y-97790000D02*
X105410000Y-98915300D01*
X97613100Y-111615300D02*
X97790000Y-111615300D01*
X94414400Y-114814000D02*
X97613100Y-111615300D01*
X94414400Y-116867600D02*
X94414400Y-114814000D01*
X93077300Y-118204700D02*
X94414400Y-116867600D01*
X92710000Y-118204700D02*
X93077300Y-118204700D01*
X92710000Y-119380000D02*
X92710000Y-118204700D01*
X97790000Y-110490000D02*
X97790000Y-111615300D01*
X97508600Y-114155300D02*
X97790000Y-114155300D01*
X96664700Y-114999200D02*
X97508600Y-114155300D01*
X96664700Y-117157300D02*
X96664700Y-114999200D01*
X93077300Y-120744700D02*
X96664700Y-117157300D01*
X92710000Y-120744700D02*
X93077300Y-120744700D01*
X92710000Y-121920000D02*
X92710000Y-120744700D01*
X97790000Y-113030000D02*
X97790000Y-114155300D01*
X98071300Y-116695300D02*
X97790000Y-116695300D01*
X100330000Y-118954000D02*
X98071300Y-116695300D01*
X100330000Y-124460000D02*
X100330000Y-118954000D01*
X97790000Y-115570000D02*
X97790000Y-116695300D01*
X121775300Y-115570000D02*
X123190000Y-115570000D01*
X119235300Y-118110000D02*
X121775300Y-115570000D01*
X118110000Y-118110000D02*
X119235300Y-118110000D01*
X92710000Y-76344700D02*
X92710000Y-74930000D01*
X91440000Y-77614700D02*
X92710000Y-76344700D01*
X91440000Y-78740000D02*
X91440000Y-77614700D01*
M02*
